<svg width="75" height="75" viewBox="0 0 75 75" fill="none" xmlns="http://www.w3.org/2000/svg">
<path d="M14.1 1.99699e-06C12.2481 -0.000983851 10.4141 0.36305 8.703 1.07129C6.99186 1.77953 5.4371 2.8181 4.1276 4.1276C2.8181 5.4371 1.77953 6.99186 1.07129 8.703C0.36305 10.4141 -0.000983851 12.2481 1.99699e-06 14.1V60.9C-0.000983851 62.7519 0.36305 64.5859 1.07129 66.297C1.77953 68.0081 2.8181 69.5629 4.1276 70.8724C5.4371 72.1819 6.99186 73.2205 8.703 73.9287C10.4141 74.637 12.2481 75.001 14.1 75H60.9C62.7519 75.001 64.5859 74.637 66.297 73.9287C68.0081 73.2205 69.5629 72.1819 70.8724 70.8724C72.1819 69.5629 73.2205 68.0081 73.9287 66.297C74.637 64.5859 75.001 62.7519 75 60.9V14.1C75.001 12.2481 74.637 10.4141 73.9287 8.703C73.2205 6.99186 72.1819 5.4371 70.8724 4.1276C69.5629 2.8181 68.0081 1.77953 66.297 1.07129C64.5859 0.36305 62.7519 -0.000983851 60.9 1.99699e-06H14.1ZM21.0563 17.5988H53.9438C55.4783 17.5992 56.9976 17.902 58.4151 18.4897C59.8326 19.0773 61.1205 19.9385 62.2052 21.0239C63.2899 22.1093 64.1502 23.3977 64.737 24.8156C65.3237 26.2334 65.6255 27.753 65.625 29.2875V45.72C65.625 48.8184 64.3944 51.79 62.2039 53.9812C60.0133 56.1725 57.0422 57.404 53.9438 57.405H21.0563C19.5214 57.4045 18.0018 57.1017 16.584 56.5137C15.1663 55.9258 13.8782 55.0644 12.7935 53.9786C11.7087 52.8928 10.8485 51.6039 10.262 50.1856C9.67541 48.7673 9.37402 47.2473 9.375 45.7125V29.2875C9.375 26.1891 10.6056 23.2175 12.7961 21.0263C14.9867 18.835 17.9578 17.5997 21.0563 17.5988ZM30.3563 29.3363C30.1994 29.3448 30.0516 29.4127 29.943 29.5263C29.8343 29.6398 29.7729 29.7904 29.7713 29.9475V45.0788C29.7699 45.1841 29.7956 45.2881 29.846 45.3807C29.8963 45.4733 29.9696 45.5514 30.0589 45.6075C30.1481 45.6636 30.2502 45.6958 30.3555 45.7011C30.4608 45.7063 30.5656 45.6844 30.66 45.6375L46.0388 38.2988C46.1421 38.2487 46.2295 38.1709 46.2911 38.074C46.3527 37.9772 46.3862 37.8651 46.3878 37.7503C46.3893 37.6355 46.3589 37.5225 46.2999 37.424C46.2409 37.3255 46.1557 37.2453 46.0538 37.1925L30.675 29.4C30.5779 29.3499 30.4691 29.3266 30.36 29.3325L30.3563 29.3363Z" fill="#FF0000"/>
</svg>
