<svg width="30" height="30" viewBox="0 0 30 30" fill="none" xmlns="http://www.w3.org/2000/svg">
<path d="M9.88 21.4935C9.94648 21.7858 10.1027 22.0513 10.3277 22.2543C10.5527 22.4573 10.8357 22.5881 11.1388 22.6291C11.4418 22.6701 11.7505 22.6194 12.0233 22.4838C12.2961 22.3482 12.52 22.1341 12.665 21.8704L15.2775 18.0853L21.4112 24.0903C21.5351 24.2116 21.6821 24.3077 21.844 24.3734C22.0058 24.439 22.1792 24.4728 22.3544 24.4728C22.5295 24.4728 22.703 24.439 22.8648 24.3734C23.0266 24.3077 23.1736 24.2116 23.2975 24.0903L24.6062 22.809C24.7301 22.6878 24.8284 22.5438 24.8954 22.3854C24.9624 22.227 24.9969 22.0572 24.9969 21.8857C24.9969 21.7142 24.9624 21.5444 24.8954 21.386C24.8284 21.2275 24.7301 21.0836 24.6062 20.9623L18.4725 14.9573L22.3638 12.3996C22.6332 12.2576 22.8517 12.0383 22.9902 11.7711C23.1286 11.5039 23.1803 11.2017 23.1383 10.905C23.0962 10.6083 22.9625 10.3312 22.755 10.111C22.5475 9.89081 22.2762 9.73801 21.9775 9.67309L5 4.89551L9.88 21.4935Z" stroke="#0066B3" stroke-width="2" stroke-linecap="round" stroke-linejoin="round"/>
</svg>
