<svg width="20" height="20" viewBox="0 0 20 20" fill="none" xmlns="http://www.w3.org/2000/svg">
<path d="M17.5002 4.16682L2.50017 4.16682C2.34831 4.1673 2.19944 4.20918 2.06961 4.28797C1.93978 4.36676 1.83389 4.47946 1.76334 4.61395C1.6928 4.74844 1.66027 4.89962 1.66926 5.05122C1.67824 5.20283 1.7284 5.34911 1.81434 5.47432L9.31434 16.3077C9.62517 16.7568 10.3735 16.7568 10.6852 16.3077L18.1852 5.47432C18.272 5.34937 18.3229 5.20302 18.3324 5.05116C18.3418 4.89931 18.3095 4.74776 18.2389 4.61298C18.1683 4.47821 18.0621 4.36536 17.9319 4.2867C17.8016 4.20804 17.6523 4.16658 17.5002 4.16682Z" fill="#555555"/>
</svg>
