<svg width="30" height="30" viewBox="0 0 30 30" fill="none" xmlns="http://www.w3.org/2000/svg">
<g clip-path="url(#clip0_62_1513)">
<path d="M15 2.5C21.9037 2.5 27.5 8.09625 27.5 15C27.5 21.9037 21.9037 27.5 15 27.5C8.09625 27.5 2.5 21.9037 2.5 15C2.5 8.09625 8.09625 2.5 15 2.5ZM17.1037 19.9375C15.7025 20.0205 14.2975 20.0205 12.8963 19.9375C13.0663 20.92 13.2825 21.805 13.5337 22.56C13.8487 23.505 14.1962 24.18 14.5212 24.5925C14.6312 24.73 14.8 25 15.0025 25C15.1837 24.9837 15.38 24.7162 15.4775 24.5925C15.8025 24.18 16.1512 23.505 16.465 22.56C16.7431 21.7031 16.9574 20.8264 17.1037 19.9375ZM24.3913 18.4438C24.06 18.5863 23.7113 18.7175 23.35 18.8375C22.285 19.1925 21.04 19.4775 19.675 19.675C19.504 20.9222 19.2238 22.1519 18.8375 23.35C18.7175 23.7125 18.5863 24.06 18.4438 24.3913C19.8066 23.8896 21.0443 23.098 22.0711 22.0711C23.098 21.0443 23.8896 19.8066 24.3913 18.4438ZM5.60875 18.4438C6.11036 19.8066 6.90198 21.0443 7.92886 22.0711C8.95574 23.098 10.1934 23.8896 11.5562 24.3913C11.4104 24.0499 11.2791 23.7025 11.1625 23.35C10.7762 22.1519 10.496 20.9222 10.325 19.675C9.07783 19.504 7.8481 19.2238 6.65 18.8375C6.2875 18.7175 5.94 18.5863 5.60875 18.4438ZM12.59 12.59C12.4685 14.1944 12.4685 15.8056 12.59 17.41C14.1925 17.5313 15.8075 17.5313 17.41 17.41C17.5315 15.8056 17.5315 14.1944 17.41 12.59C15.8056 12.4685 14.1944 12.4685 12.59 12.59ZM19.9375 12.8963C20.0205 14.2975 20.0205 15.7025 19.9375 17.1037C20.8264 16.957 21.703 16.7439 22.56 16.4663C23.505 16.1513 24.18 15.8038 24.5925 15.4788C24.73 15.37 25 15.1988 25 14.9975C24.9837 14.8163 24.7162 14.62 24.5925 14.5225C24.18 14.1975 23.505 13.8488 22.56 13.535C21.703 13.2573 20.8264 13.043 19.9375 12.8963ZM10.0625 12.8963C9.08 13.0663 8.19625 13.2825 7.44 13.5337C6.495 13.8487 5.82125 14.1962 5.4075 14.5212C5.1075 14.7587 5.0175 14.9375 5.00375 14.9812C4.9475 15.1687 5.29125 15.385 5.4075 15.4775C5.82 15.8025 6.495 16.1512 7.44 16.465C8.19625 16.7175 9.08 16.9338 10.0625 17.1025C9.97946 15.7021 9.97946 14.2967 10.0625 12.8963ZM11.5562 5.60875C10.1934 6.11044 8.95582 6.90208 7.92895 7.92895C6.90208 8.95582 6.11044 10.1934 5.60875 11.5562C5.94 11.4137 6.28875 11.2825 6.65 11.1625C7.8481 10.7762 9.07783 10.496 10.325 10.325C10.5225 8.96 10.8075 7.715 11.1625 6.65C11.2825 6.2875 11.4137 5.94 11.5562 5.60875ZM18.4438 5.60875C18.5863 5.94 18.7175 6.28875 18.8375 6.65C19.1925 7.715 19.4775 8.96 19.675 10.325C21.04 10.5225 22.285 10.8075 23.35 11.1625C23.7125 11.2825 24.06 11.4137 24.3913 11.5562C23.8896 10.1934 23.098 8.95574 22.0711 7.92886C21.0443 6.90198 19.8066 6.11036 18.4438 5.60875ZM15 5C14.8263 5 14.61 5.29625 14.5225 5.4075C14.1975 5.82 13.8488 6.495 13.535 7.44C13.2573 8.29703 13.0442 9.17365 12.8975 10.0625C14.2979 9.97946 15.7021 9.97946 17.1025 10.0625C16.9558 9.17365 16.7427 8.29703 16.465 7.44C16.1512 6.495 15.8025 5.82125 15.4775 5.4075C15.39 5.295 15.175 5 15 5Z" fill="#555555"/>
</g>
<defs>
<clipPath id="clip0_62_1513">
<rect width="30" height="30" fill="white"/>
</clipPath>
</defs>
</svg>
