<svg width="30" height="30" viewBox="0 0 30 30" fill="none" xmlns="http://www.w3.org/2000/svg">
<path d="M26.2498 6.25023L3.74977 6.25023C3.52197 6.25095 3.29868 6.31378 3.10393 6.43196C2.90918 6.55014 2.75035 6.71919 2.64453 6.92092C2.53871 7.12266 2.48991 7.34943 2.50339 7.57684C2.51687 7.80424 2.59211 8.02366 2.72102 8.21148L13.971 24.4615C14.4373 25.1352 15.5598 25.1352 16.0273 24.4615L27.2773 8.21149C27.4075 8.02406 27.4839 7.80452 27.4981 7.57674C27.5123 7.34896 27.4638 7.12164 27.3579 6.91948C27.252 6.71731 27.0927 6.54804 26.8973 6.43006C26.702 6.31207 26.478 6.24988 26.2498 6.25023Z" fill="#F8F8F8"/>
</svg>
