<svg width="100" height="100" viewBox="0 0 100 100" fill="none" xmlns="http://www.w3.org/2000/svg">
<circle cx="50" cy="50" r="50" fill="#0066B3"/>
<rect width="70" height="70" transform="translate(15 14)" fill="#0066B3"/>
<path d="M23.7499 69.4171H76.2499C76.7814 69.4154 77.3024 69.2688 77.7569 68.9931C78.2113 68.7173 78.5819 68.3229 78.8288 67.8521C79.0757 67.3814 79.1896 66.8523 79.1581 66.3217C79.1267 65.7911 78.9511 65.2791 78.6503 64.8408L52.4003 26.9242C51.3124 25.3521 48.6932 25.3521 47.6024 26.9242L21.3524 64.8408C21.0485 65.2782 20.8704 65.7904 20.8372 66.3219C20.804 66.8534 20.9172 67.3838 21.1643 67.8555C21.4114 68.3272 21.7831 68.7222 22.2389 68.9975C22.6948 69.2728 23.2174 69.4179 23.7499 69.4171Z" fill="#F8F8F8"/>
</svg>
