<svg width="33" height="24" viewBox="0 0 33 24" fill="none" xmlns="http://www.w3.org/2000/svg">
<path d="M32.3038 3.74694C32.116 3.02209 31.7483 2.3612 31.2374 1.83041C30.7266 1.29962 30.0905 0.917555 29.3929 0.722449C26.8237 2.18956e-07 16.5 0 16.5 0C16.5 0 6.17627 2.18956e-07 3.60712 0.722449C2.90949 0.917555 2.27342 1.29962 1.76256 1.83041C1.25171 2.3612 0.883986 3.02209 0.696206 3.74694C0.21649 6.46931 -0.0163041 9.23244 0.000886751 12C-0.0163041 14.7676 0.21649 17.5307 0.696206 20.2531C0.883986 20.9779 1.25171 21.6388 1.76256 22.1696C2.27342 22.7004 2.90949 23.0824 3.60712 23.2776C6.17627 24 16.5 24 16.5 24C16.5 24 26.8237 24 29.3929 23.2776C30.0905 23.0824 30.7266 22.7004 31.2374 22.1696C31.7483 21.6388 32.116 20.9779 32.3038 20.2531C32.7835 17.5307 33.0163 14.7676 32.9991 12C33.0163 9.23244 32.7835 6.46931 32.3038 3.74694ZM13.2002 17.1429V6.85714L21.7679 12L13.2002 17.1429Z" fill="#FF0000"/>
</svg>
