<svg width="34" height="34" viewBox="0 0 34 34" fill="none" xmlns="http://www.w3.org/2000/svg">
<path d="M16.6663 26.6667C23.333 26.6667 24.9997 20 24.9997 20H8.33301C8.33301 20 9.99967 26.6667 16.6663 26.6667Z" fill="#FF8A00"/>
<path d="M16.6667 33.3333C25.8567 33.3333 33.3333 25.8567 33.3333 16.6667C33.3333 7.47667 25.8567 0 16.6667 0C7.47667 0 0 7.47667 0 16.6667C0 25.8567 7.47667 33.3333 16.6667 33.3333ZM16.6667 3.33333C24.0183 3.33333 30 9.315 30 16.6667C30 24.0183 24.0183 30 16.6667 30C9.315 30 3.33333 24.0183 3.33333 16.6667C3.33333 9.315 9.315 3.33333 16.6667 3.33333Z" fill="#FF8A00"/>
<path d="M10.8917 17.7234L14.3084 14.2517C14.5408 14.0194 14.7246 13.7431 14.849 13.439C14.9735 13.1349 15.0362 12.809 15.0334 12.4804C15.0306 12.1518 14.9624 11.8271 14.8328 11.5251C14.7032 11.2232 14.5147 10.95 14.2784 10.7217C13.8232 10.2694 13.2106 10.0109 12.569 10.0003C11.9274 9.98977 11.3066 10.228 10.8367 10.665C10.3599 10.2336 9.73406 10.0042 9.09133 10.0254C8.4486 10.0465 7.83921 10.3165 7.39174 10.7784C6.41507 11.7784 6.42674 13.3284 7.4234 14.3067L10.8917 17.7234ZM22.5584 17.7234L25.9751 14.2517C26.2074 14.0194 26.3912 13.7431 26.5157 13.439C26.6402 13.1349 26.7029 12.809 26.7001 12.4804C26.6973 12.1518 26.6291 11.8271 26.4994 11.5251C26.3698 11.2232 26.1814 10.95 25.9451 10.7217C25.4899 10.2694 24.8773 10.0109 24.2356 10.0003C23.594 9.98977 22.9733 10.228 22.5034 10.665C22.0267 10.2329 21.4006 10.0029 20.7575 10.0238C20.1144 10.0446 19.5045 10.3146 19.0567 10.7767C18.0801 11.7767 18.0917 13.3267 19.0884 14.305L22.5584 17.7234Z" fill="#FF8A00"/>
</svg>
