<svg width="33" height="33" viewBox="0 0 33 33" fill="none" xmlns="http://www.w3.org/2000/svg">
<path d="M4.125 33C2.99062 33 2.01987 32.631 1.21275 31.8931C0.405625 31.1551 0.001375 30.267 0 29.2286V12.2571C0 11.66 0.146437 11.0943 0.439312 10.56C0.732187 10.0257 1.13575 9.58571 1.65 9.24L14.025 0.754286C14.7469 0.251429 15.5719 0 16.5 0C17.4281 0 18.2531 0.251429 18.975 0.754286L31.35 9.24C31.8656 9.58571 32.2699 10.0257 32.5627 10.56C32.8556 11.0943 33.0014 11.66 33 12.2571V29.2286C33 30.2657 32.5957 31.1539 31.7872 31.8931C30.9787 32.6323 30.008 33.0013 28.875 33H4.125ZM13.4062 27.3429C13.6812 27.3429 13.9219 27.2486 14.1281 27.06C14.3344 26.8714 14.4375 26.6514 14.4375 26.4V19.8C15.2969 19.8 16.0277 19.5253 16.6299 18.9759C17.2322 18.4266 17.5326 17.7584 17.5312 16.9714V12.2571C17.5312 12.0057 17.4281 11.7857 17.2219 11.5971C17.0156 11.4086 16.775 11.3143 16.5 11.3143C16.225 11.3143 15.9844 11.4086 15.7781 11.5971C15.5719 11.7857 15.4687 12.0057 15.4687 12.2571V16.9714H14.4375V12.2571C14.4375 12.0057 14.3344 11.7857 14.1281 11.5971C13.9219 11.4086 13.6812 11.3143 13.4062 11.3143C13.1312 11.3143 12.8906 11.4086 12.6844 11.5971C12.4781 11.7857 12.375 12.0057 12.375 12.2571V16.9714H11.3437V12.2571C11.3437 12.0057 11.2406 11.7857 11.0344 11.5971C10.8281 11.4086 10.5875 11.3143 10.3125 11.3143C10.0375 11.3143 9.79687 11.4086 9.59062 11.5971C9.38437 11.7857 9.28125 12.0057 9.28125 12.2571V16.9714C9.28125 17.7571 9.58237 18.4253 10.1846 18.9759C10.7869 19.5266 11.517 19.8013 12.375 19.8V26.4C12.375 26.6514 12.4781 26.8714 12.6844 27.06C12.8906 27.2486 13.1312 27.3429 13.4062 27.3429ZM21.6562 27.3429C21.9312 27.3429 22.1719 27.2486 22.3781 27.06C22.5844 26.8714 22.6875 26.6514 22.6875 26.4V12.54C22.6875 12.1943 22.5589 11.9039 22.3018 11.6688C22.0447 11.4337 21.7264 11.3155 21.3469 11.3143C20.4187 11.3143 19.723 11.7071 19.2596 12.4929C18.7962 13.2786 18.5639 14.1429 18.5625 15.0857V18.8571C18.5625 19.36 18.8121 19.7139 19.3112 19.9188C19.8103 20.1237 20.2482 20.3984 20.625 20.7429V26.4C20.625 26.6514 20.7281 26.8714 20.9344 27.06C21.1406 27.2486 21.3812 27.3429 21.6562 27.3429Z" fill="#91540C"/>
</svg>
