<svg width="80" height="81" viewBox="0 0 80 81" fill="none" xmlns="http://www.w3.org/2000/svg">
<path d="M70 33.2475H67.3844C66.7562 26.419 63.5995 20.0715 58.5334 15.45C53.4673 10.8286 46.8573 8.2666 40 8.2666C33.1427 8.2666 26.5327 10.8286 21.4666 15.45C16.4005 20.0715 13.2438 26.419 12.6156 33.2475H10C9.33696 33.2475 8.70107 33.5109 8.23223 33.9797C7.76339 34.4485 7.5 35.0844 7.5 35.7475C7.51098 41.6928 9.14716 47.5221 12.2316 52.6048C15.316 57.6875 19.7313 61.8302 25 64.585V65.7475C25 67.0736 25.5268 68.3453 26.4645 69.283C27.4021 70.2207 28.6739 70.7475 30 70.7475H50C51.3261 70.7475 52.5979 70.2207 53.5355 69.283C54.4732 68.3453 55 67.0736 55 65.7475V64.585C60.2687 61.8302 64.684 57.6875 67.7684 52.6048C70.8528 47.5221 72.489 41.6928 72.5 35.7475C72.5 35.0844 72.2366 34.4485 71.7678 33.9797C71.2989 33.5109 70.663 33.2475 70 33.2475ZM62.3562 33.2475H46.2875C49.3185 28.7002 53.904 25.4147 59.1844 24.0068C60.9109 26.8151 61.9941 29.9709 62.3562 33.2475ZM54.2125 18.3193C54.7854 18.7881 55.3344 19.2829 55.8594 19.8037C49.2043 22.1448 43.7047 26.9562 40.5 33.2412H31.2812C32.8438 28.8613 35.7204 25.0706 39.5182 22.387C43.316 19.7034 47.8497 18.2577 52.5 18.2475C53.0719 18.2475 53.6437 18.2756 54.2125 18.3193ZM40 13.2475C42.0062 13.2488 44.0031 13.5189 45.9375 14.0506C41.2264 15.2193 36.9065 17.6092 33.4134 20.9794C29.9202 24.3497 27.3772 28.5812 26.0406 33.2475H17.6437C18.2639 27.7502 20.8854 22.6733 25.0085 18.9848C29.1315 15.2963 34.4678 13.2541 40 13.2475ZM51.4563 60.7475C51.0202 60.9478 50.651 61.2695 50.3927 61.674C50.1345 62.0785 49.9982 62.5488 50 63.0287V65.7475H30V63.0287C30.0018 62.5488 29.8655 62.0785 29.6073 61.674C29.349 61.2695 28.9798 60.9478 28.5437 60.7475C24.1472 58.7244 20.3602 55.5804 17.5628 51.6311C14.7654 47.6818 13.056 43.0662 12.6062 38.2475H67.3844C66.9355 43.0652 65.2275 47.6802 62.4318 51.6294C59.6361 55.5785 55.851 58.7231 51.4563 60.7475Z" fill="#333333"/>
</svg>
