<svg width="171" height="35" viewBox="0 0 171 35" fill="none" xmlns="http://www.w3.org/2000/svg">
<g clip-path="url(#clip0_1_1712)">
<path d="M127.938 10.0961L122.019 19.6544L125.075 21.9533L129.63 13.7415L134.212 21.9533L137.237 19.6544L131.318 10.0961H127.938Z" fill="#323768"/>
<path d="M88.6809 10.1136H81.2673V13.8601H87.7071C88.4461 13.8811 88.8328 14.3415 88.8777 15.2381V21.9393H92.9764V14.2543C92.9764 13.8392 92.9418 13.445 92.8762 13.0718C92.5309 11.1008 91.1325 10.1171 88.6809 10.1171V10.1136Z" fill="#323768"/>
<path d="M114.823 10.1136H110.728V21.9393H114.823V10.1136Z" fill="#323768"/>
<path d="M96.8748 17.7986C96.8748 18.2137 96.9093 18.6079 96.9715 18.9811C97.3168 20.9521 98.7152 21.9393 101.167 21.9393H108.58V10.1136H96.8748V17.7986ZM100.973 13.8566H104.485V18.1928H102.144C101.405 18.1718 101.015 17.7114 100.973 16.8148V13.8566Z" fill="#323768"/>
<path d="M142.903 10.1136H138.808V21.9393H142.903V10.1136Z" fill="#323768"/>
<path d="M146.808 17.7986C146.808 18.2137 146.839 18.6079 146.905 18.9811C147.25 20.9521 148.649 21.9393 151.1 21.9393H158.514V18.1928H152.074C151.339 18.1718 150.949 17.7114 150.904 16.8148V13.8566H158.511V10.1136H146.805V17.7986H146.808Z" fill="#323768"/>
<path d="M76.8164 27.2592H88.8777V35H92.9729V23.5161H76.8164V27.2592Z" fill="#323768"/>
<path d="M166.901 10.1136V16.5392H164.757V10.1136H160.658V27.4545H164.757V20.6765H166.901V27.4545H171V10.1136H166.901Z" fill="#323768"/>
<path d="M74.8126 7.47218C70.8333 7.18014 67.6659 3.99792 67.3652 0C67.0745 3.99792 63.9071 7.18014 59.9178 7.47218C63.8971 7.76422 67.0645 10.9464 67.3652 14.9544C67.6559 10.9565 70.8233 7.77429 74.8126 7.47218Z" fill="#FFDD2B"/>
<path d="M43.0883 21.4397H29.1457V24.3299H43.0883V21.4397Z" fill="#DD2424"/>
<path d="M43.0983 10.9263H39.9109V20.0601H43.0983V10.9263Z" fill="#DD2424"/>
<path d="M29.3061 16.4146C29.3061 17.2907 29.5867 18.0863 30.138 18.8013C31 19.8486 32.1828 20.3723 33.6963 20.3723C34.7087 20.3723 35.6008 20.1104 36.3726 19.5868C37.5153 18.8114 38.0866 17.754 38.0866 16.4146C38.0866 15.6996 37.9062 15.0451 37.5353 14.4308H38.247V11.5406H35.2901V10.3221H32.1126V11.5406H29.1557V14.4308H29.8674C29.5165 15.0249 29.3261 15.6795 29.3161 16.4146H29.3061ZM32.4334 15.6996C32.6639 15.1558 33.0849 14.8839 33.6963 14.8839C33.8767 14.8839 34.0672 14.9141 34.2476 14.9846C34.7889 15.2163 35.0595 15.6392 35.0595 16.2535C35.0595 16.4348 35.0294 16.6261 34.9593 16.8074C34.7287 17.3512 34.3078 17.6231 33.6963 17.6231C33.5159 17.6231 33.3255 17.5929 33.145 17.5224C32.6038 17.2907 32.3331 16.8678 32.3331 16.2535C32.3331 16.0622 32.3632 15.8809 32.4334 15.6896V15.6996Z" fill="#DD2424"/>
<path d="M55.5274 25.2262C54.3346 25.2262 53.2721 25.5887 52.35 26.3137C51.1371 27.2604 50.5257 28.5191 50.5257 30.1002C50.5257 31.2683 50.8966 32.2955 51.6383 33.2018C52.6106 34.3901 53.9136 34.9742 55.5274 34.9742C56.7202 34.9742 57.7827 34.6117 58.7048 33.8866C59.9177 32.94 60.5291 31.6812 60.5291 30.1002C60.5291 28.932 60.1582 27.9049 59.4165 27.0086C58.4442 25.8203 57.1412 25.2362 55.5274 25.2362V25.2262ZM57.1412 31.0367C56.8004 31.7316 56.2691 32.074 55.5274 32.074C55.2267 32.074 54.936 31.9934 54.6654 31.8424C54.0239 31.4698 53.7031 30.8857 53.7031 30.0901C53.7031 29.7679 53.7733 29.4557 53.9036 29.1536C54.2444 28.4587 54.7756 28.1163 55.5174 28.1163C55.8181 28.1163 56.1088 28.1969 56.3794 28.348C57.0209 28.7206 57.3416 29.3046 57.3416 30.1002C57.3416 30.4224 57.2715 30.7346 57.1412 31.0367Z" fill="#DD2424"/>
<path d="M55.2167 10.9263H46.1254V16.8678C46.1254 17.19 46.1555 17.4921 46.2056 17.7842C46.4762 19.3048 47.5588 20.0702 49.4632 20.0702H55.2267V10.9364L55.2167 10.9263ZM52.0292 17.1699H50.215C49.6436 17.1498 49.3429 16.7973 49.3028 16.1024V13.8165H52.0292V17.1699Z" fill="#DD2424"/>
<path d="M56.8906 10.9263V24.1788H60.068V13.8266H61.8923V10.9263H56.8906Z" fill="#DD2424"/>
<path d="M18.0998 15.891H16.4259V10.9263H13.2485V24.058H16.4259V19.0933H18.0998V24.058H21.2773V10.9263H18.0998V15.891Z" fill="#DD2424"/>
<path d="M4.75863 10.9162L0.157867 18.2978L2.53342 20.0802L6.0717 13.7359L9.63002 20.0802L11.9755 18.2978L7.38477 10.9162H4.75863Z" fill="#DD2424"/>
</g>
<defs>
<clipPath id="clip0_1_1712">
<rect width="171" height="35" fill="white"/>
</clipPath>
</defs>
</svg>
