<svg width="80" height="80" viewBox="0 0 80 80" fill="none" xmlns="http://www.w3.org/2000/svg">
<path d="M6.66699 73.339V66.6723C6.66699 66.6723 23.3337 60.0056 40.0003 60.0056C56.667 60.0056 73.3337 66.6723 73.3337 66.6723V73.339H6.66699ZM37.667 30.339C33.667 17.339 13.3337 20.339 13.3337 20.339C13.3337 20.339 14.0003 46.339 33.0003 42.339C31.667 32.6723 26.667 30.0056 26.667 30.0056C36.0003 30.0056 36.667 41.339 36.667 41.339V56.6723H43.3337V42.6723C43.3337 42.6723 43.3337 29.6723 53.3337 26.339C53.3337 26.339 46.667 36.339 46.667 43.0056C70.0003 45.339 70.0003 13.339 70.0003 13.339C70.0003 13.339 40.3337 10.0056 37.667 30.339Z" fill="#0066B3"/>
</svg>
