<svg width="58" height="61" viewBox="0 0 58 61" fill="none" xmlns="http://www.w3.org/2000/svg">
<path fill-rule="evenodd" clip-rule="evenodd" d="M28.6079 0.859375C21.0795 0.859375 14.2212 3.34041 10.1629 5.36748C9.79619 5.5504 9.45452 5.72999 9.13619 5.90293C8.50619 6.24548 7.96952 6.56476 7.54286 6.84579L12.1595 13.6271L14.3329 14.4901C22.8262 18.7654 34.2162 18.7654 42.7112 14.4901L45.1779 13.213L49.5429 6.84579C48.6387 6.25722 47.6986 5.72571 46.7279 5.2544C42.6895 3.24895 35.9945 0.859375 28.6095 0.859375M17.8729 8.53529C16.2381 8.23008 14.6234 7.8258 13.0379 7.3247C16.8395 5.64019 22.5045 3.85258 28.6095 3.85258C32.8379 3.85258 36.8362 4.71063 40.1429 5.79817C36.2679 6.34193 32.1329 7.26484 28.1929 8.40059C25.0929 9.29523 21.4695 9.19878 17.8729 8.53529ZM44.4729 16.9562L44.0629 17.1624C34.7195 21.865 22.3262 21.865 12.9829 17.1624L12.5945 16.9662C-1.44381 32.3329 -12.1605 60.7185 28.6079 60.7185C69.3762 60.7185 58.3995 31.8058 44.4729 16.9562ZM26.8762 30.7914C25.9921 30.7914 25.1443 31.1418 24.5192 31.7655C23.894 32.3892 23.5429 33.2352 23.5429 34.1172C23.5429 34.9993 23.894 35.8452 24.5192 36.4689C25.1443 37.0926 25.9921 37.443 26.8762 37.443V30.7914ZM30.2095 27.4657V25.8028H26.8762V27.4657C25.1081 27.4657 23.4124 28.1664 22.1621 29.4139C20.9119 30.6613 20.2095 32.3531 20.2095 34.1172C20.2095 35.8813 20.9119 37.5732 22.1621 38.8206C23.4124 40.068 25.1081 40.7688 26.8762 40.7688V47.4204C25.4262 47.4204 24.1912 46.4975 23.7312 45.2037C23.6629 44.9921 23.5528 44.7962 23.4074 44.6277C23.262 44.4593 23.0841 44.3216 22.8845 44.2229C22.6848 44.1242 22.4673 44.0665 22.2448 44.0531C22.0224 44.0397 21.7995 44.071 21.5894 44.1451C21.3793 44.2192 21.1862 44.3345 21.0215 44.4843C20.8569 44.6342 20.724 44.8154 20.6308 45.0174C20.5375 45.2193 20.4859 45.4379 20.4788 45.6601C20.4717 45.8824 20.5094 46.1038 20.5895 46.3112C21.0493 47.6082 21.9007 48.7312 23.0265 49.5254C24.1524 50.3196 25.4973 50.7461 26.8762 50.7462V52.409H30.2095V50.7462C31.9776 50.7462 33.6733 50.0454 34.9236 48.798C36.1738 47.5505 36.8762 45.8587 36.8762 44.0946C36.8762 42.3305 36.1738 40.6386 34.9236 39.3912C33.6733 38.1438 31.9776 37.443 30.2095 37.443V30.7914C31.6595 30.7914 32.8945 31.7143 33.3545 33.0081C33.4228 33.2197 33.5329 33.4156 33.6783 33.5841C33.8237 33.7525 34.0016 33.8902 34.2013 33.9889C34.4009 34.0876 34.6184 34.1453 34.8409 34.1587C35.0633 34.1721 35.2862 34.1408 35.4963 34.0667C35.7065 33.9926 35.8996 33.8773 36.0642 33.7275C36.2289 33.5776 36.3617 33.3964 36.4549 33.1944C36.5482 32.9925 36.5998 32.7739 36.6069 32.5517C36.614 32.3294 36.5764 32.108 36.4962 31.9006C36.0365 30.6036 35.185 29.4806 34.0592 28.6864C32.9333 27.8922 31.5884 27.4657 30.2095 27.4657ZM30.2095 40.7688V47.4204C31.0936 47.4204 31.9414 47.07 32.5665 46.4463C33.1917 45.8226 33.5429 44.9766 33.5429 44.0946C33.5429 43.2125 33.1917 42.3666 32.5665 41.7429C31.9414 41.1192 31.0936 40.7688 30.2095 40.7688Z" fill="#0066B3"/>
</svg>
