<svg width="80" height="55" viewBox="0 0 80 55" fill="none" xmlns="http://www.w3.org/2000/svg">
<path d="M61.5771 19.2101L60.8057 18.9467L54.32 7.27055C53.1019 5.07628 51.2855 3.24122 49.0651 1.96161C46.8447 0.682009 44.3039 0.00599194 41.7143 0.00585939H25.3829C22.3839 0.00574187 19.4609 0.911896 17.0281 2.59591C14.5954 4.27992 12.7763 6.65638 11.8286 9.3885L8.73714 18.2938C6.14717 19.342 3.93675 21.1005 2.38262 23.3492C0.828484 25.5979 -0.000306608 28.2368 8.50875e-08 30.9357V37.0426C8.50875e-08 40.9383 2.41714 44.2853 5.88571 45.7942C6.33489 48.2654 7.65225 50.5143 9.61835 52.1661C11.5845 53.818 14.0806 54.7732 16.6911 54.8727C19.3015 54.9721 21.8686 54.2098 23.9648 52.7127C26.061 51.2155 27.5598 49.074 28.2114 46.6447H51.7886C52.4402 49.074 53.939 51.2155 56.0352 52.7127C58.1314 54.2098 60.6985 54.9721 63.3089 54.8727C65.9194 54.7732 68.4155 53.818 70.3817 52.1661C72.3478 50.5143 73.6651 48.2654 74.1143 45.7942C75.8683 45.034 77.3566 43.8038 78.4006 42.2515C79.4446 40.6991 80 38.8905 80 37.0426V35.1825C79.9996 32.3509 79.0865 29.5887 77.3861 27.2751C75.6857 24.9616 73.2813 23.21 70.5029 22.2608L61.8743 19.3143V19.2101H61.5771ZM17.24 11.1224C17.8092 9.48149 18.9022 8.05448 20.3639 7.04392C21.8256 6.03337 23.5817 5.49064 25.3829 5.49278H31.4286V19.2101H14.44L17.24 11.1224ZM54.4743 19.2101H37.1429V5.49278H41.7143C43.2682 5.49225 44.793 5.89735 46.1257 6.66473C47.4583 7.43212 48.5486 8.53292 49.28 9.8494L54.4743 19.2101ZM11.4286 43.9013C11.4286 42.446 12.0306 41.0504 13.1022 40.0214C14.1739 38.9924 15.6273 38.4143 17.1429 38.4143C18.6584 38.4143 20.1118 38.9924 21.1835 40.0214C22.2551 41.0504 22.8571 42.446 22.8571 43.9013C22.8571 45.3565 22.2551 46.7521 21.1835 47.7811C20.1118 48.8101 18.6584 49.3882 17.1429 49.3882C15.6273 49.3882 14.1739 48.8101 13.1022 47.7811C12.0306 46.7521 11.4286 45.3565 11.4286 43.9013ZM62.8571 38.4143C64.3727 38.4143 65.8261 38.9924 66.8978 40.0214C67.9694 41.0504 68.5714 42.446 68.5714 43.9013C68.5714 45.3565 67.9694 46.7521 66.8978 47.7811C65.8261 48.8101 64.3727 49.3882 62.8571 49.3882C61.3416 49.3882 59.8882 48.8101 58.8165 47.7811C57.7449 46.7521 57.1429 45.3565 57.1429 43.9013C57.1429 42.446 57.7449 41.0504 58.8165 40.0214C59.8882 38.9924 61.3416 38.4143 62.8571 38.4143Z" fill="#0066B3"/>
</svg>
