<svg width="80" height="80" viewBox="0 0 80 80" fill="none" xmlns="http://www.w3.org/2000/svg">
<path fill-rule="evenodd" clip-rule="evenodd" d="M29.7143 8C29.0323 8 28.3782 8.27092 27.896 8.75315C27.4138 9.23539 27.1429 9.88944 27.1429 10.5714V31.1429H6.57143C5.88944 31.1429 5.23539 31.4138 4.75315 31.896C4.27092 32.3782 4 33.0323 4 33.7143L4 54.2857C4 54.9677 4.27092 55.6218 4.75315 56.104C5.23539 56.5862 5.88944 56.8571 6.57143 56.8571H27.1429V77.4286C27.1429 78.1106 27.4138 78.7646 27.896 79.2468C28.3782 79.7291 29.0323 80 29.7143 80H50.2857C50.9677 80 51.6218 79.7291 52.104 79.2468C52.5862 78.7646 52.8571 78.1106 52.8571 77.4286V56.8571H73.4286C74.1106 56.8571 74.7646 56.5862 75.2468 56.104C75.7291 55.6218 76 54.9677 76 54.2857V33.7143C76 33.0323 75.7291 32.3782 75.2468 31.896C74.7646 31.4138 74.1106 31.1429 73.4286 31.1429H52.8571V10.5714C52.8571 9.88944 52.5862 9.23539 52.104 8.75315C51.6218 8.27092 50.9677 8 50.2857 8H29.7143Z" fill="#0066B3"/>
</svg>
