<svg width="70" height="70" viewBox="0 0 70 70" fill="none" xmlns="http://www.w3.org/2000/svg">
<g clip-path="url(#clip0_287_8)">
<path d="M43.75 0.00585938C48.5625 0.00585938 52.5 3.94336 52.5 8.75586C52.5 12.6934 49.875 16.1934 45.9375 17.0684V17.5059C47.6875 17.5059 49 18.3809 50.3125 19.6934L56 25.3809C56.4375 25.8184 57.3125 26.2559 58.1875 26.2559H65.625V0.00585938H43.75Z" fill="#0066B3"/>
<path d="M51.625 63.4434L35 43.7559V54.6934C35 58.1934 31.9375 61.2559 28.4375 61.2559H13.125C10.5 61.2559 8.75 59.5059 8.75 56.8809C8.75 54.2559 10.5 52.5059 13.125 52.5059H24.0625C25.375 52.5059 26.25 51.6309 26.25 50.3184V41.5684C26.25 38.5059 26.6875 35.8809 28 32.8184L31.0625 26.2559H27.5625C25.375 26.2559 23.625 27.1309 22.3125 28.8809L20.125 31.9434C19.25 33.6934 17.0625 34.1309 14.875 33.2559C13.125 31.9434 12.25 29.3184 14 27.5684L16.625 24.0684C19.6875 19.6934 24.9375 17.5059 30.1875 17.5059H38.9375L39.375 16.1934C36.75 14.8809 35 11.8184 35 8.75586C35 3.94336 38.9375 0.00585938 43.75 0.00585938H13.125V21.4434L10.5 24.9434C9.1875 26.6934 8.3125 28.8809 8.75 31.5059C9.1875 33.6934 10.5 35.8809 12.6875 37.1934V48.1309C7.875 48.1309 3.9375 52.0684 3.9375 56.8809C3.9375 61.6934 7.875 65.6309 12.6875 65.6309V70.0059H63.4375C58.625 70.0059 54.25 67.3809 51.625 63.4434Z" fill="#0066B3"/>
<path d="M49.8752 31.9434L46.8127 28.4434L44.1877 35.0059C43.3127 37.1934 42.8752 38.9434 44.1877 40.6934L65.6252 67.3809V35.0059H56.4377C53.8127 35.0059 51.6252 34.1309 49.8752 31.9434Z" fill="#0066B3"/>
</g>
<defs>
<clipPath id="clip0_287_8">
<rect width="70" height="70" fill="white" transform="translate(0 0.00585938)"/>
</clipPath>
</defs>
</svg>
