<svg width="80" height="80" viewBox="0 0 80 80" fill="none" xmlns="http://www.w3.org/2000/svg">
<path d="M39.9997 34.9098C48.3197 26.5448 69.1247 41.1798 39.9997 59.9998C10.8747 41.1798 31.6797 26.5448 39.9997 34.9098Z" fill="#0066B3"/>
<path d="M43.5349 7.50007C42.5973 6.56271 41.3257 6.03613 39.9999 6.03613C38.6741 6.03613 37.4026 6.56271 36.4649 7.50007L3.22993 40.7301C2.76116 41.1995 2.49807 41.8359 2.49854 42.4993C2.499 43.1627 2.76299 43.7988 3.23243 44.2676C3.70186 44.7363 4.33828 44.9994 5.00169 44.999C5.6651 44.9985 6.30116 44.7345 6.76993 44.2651L9.99993 41.0351V67.5001C9.99993 69.4892 10.7901 71.3968 12.1966 72.8034C13.6031 74.2099 15.5108 75.0001 17.4999 75.0001H62.4999C64.4891 75.0001 66.3967 74.2099 67.8032 72.8034C69.2098 71.3968 69.9999 69.4892 69.9999 67.5001V41.0351L73.2299 44.2651C73.6987 44.7345 74.3347 44.9985 74.9982 44.999C75.6616 44.9994 76.298 44.7363 76.7674 44.2676C77.2369 43.7988 77.5009 43.1627 77.5013 42.4993C77.5018 41.8359 77.2387 41.1995 76.7699 40.7301L64.9999 28.9651V12.5001C64.9999 11.837 64.7365 11.2011 64.2677 10.7323C63.7989 10.2635 63.163 10.0001 62.4999 10.0001H57.4999C56.8369 10.0001 56.201 10.2635 55.7322 10.7323C55.2633 11.2011 54.9999 11.837 54.9999 12.5001V18.9651L43.5349 7.50007ZM64.9999 36.0351V67.5001C64.9999 68.1631 64.7365 68.799 64.2677 69.2678C63.7989 69.7367 63.163 70.0001 62.4999 70.0001H17.4999C16.8369 70.0001 16.201 69.7367 15.7322 69.2678C15.2633 68.799 14.9999 68.1631 14.9999 67.5001V36.0351L39.9999 11.0351L64.9999 36.0351Z" fill="#0066B3"/>
</svg>
