<svg width="40" height="40" viewBox="0 0 40 40" fill="none" xmlns="http://www.w3.org/2000/svg">
<path fill-rule="evenodd" clip-rule="evenodd" d="M29.089 16.3622C29.089 18.0335 28.7598 19.6885 28.1203 21.2326C27.4807 22.7767 26.5432 24.1796 25.3614 25.3614C24.1796 26.5432 22.7767 27.4807 21.2326 28.1203C19.6885 28.7598 18.0335 29.089 16.3622 29.089C14.6909 29.089 13.036 28.7598 11.4919 28.1203C9.94782 27.4807 8.54483 26.5432 7.36304 25.3614C6.18125 24.1796 5.2438 22.7767 4.60421 21.2326C3.96463 19.6885 3.63545 18.0335 3.63545 16.3622C3.63545 12.9869 4.9763 9.74977 7.36304 7.36304C9.74977 4.9763 12.9869 3.63545 16.3622 3.63545C19.7376 3.63545 22.9747 4.9763 25.3614 7.36304C27.7482 9.74977 29.089 12.9869 29.089 16.3622ZM26.5764 29.1472C23.3089 31.7576 19.166 33.0178 14.9984 32.669C10.8308 32.3203 6.95497 30.389 4.16684 27.2718C1.37871 24.1546 -0.110035 20.0882 0.00634309 15.9077C0.122722 11.7271 1.8354 7.74985 4.79262 4.79262C7.74985 1.8354 11.7271 0.122722 15.9077 0.00634309C20.0882 -0.110035 24.1546 1.37871 27.2718 4.16684C30.389 6.95497 32.3203 10.8308 32.669 14.9984C33.0178 19.166 31.7576 23.3089 29.1472 26.5764L39.4668 36.8924C39.6359 37.0614 39.7699 37.2621 39.8614 37.483C39.9529 37.7038 40 37.9405 40 38.1796C40 38.4187 39.9529 38.6554 39.8614 38.8762C39.7699 39.0971 39.6359 39.2978 39.4668 39.4668C39.2978 39.6359 39.0971 39.7699 38.8762 39.8614C38.6554 39.9529 38.4187 40 38.1796 40C37.9405 40 37.7038 39.9529 37.483 39.8614C37.2621 39.7699 37.0614 39.6359 36.8924 39.4668L26.5764 29.1472Z" fill="#0065B3"/>
</svg>
