<svg width="25" height="30" viewBox="0 0 25 30" fill="none" xmlns="http://www.w3.org/2000/svg">
<g clip-path="url(#clip0_116_9)">
<path fill-rule="evenodd" clip-rule="evenodd" d="M3.57084 12.8571C3.57084 10.5839 4.32339 8.40368 5.66294 6.79623C7.00248 5.18877 8.8193 4.28571 10.7137 4.28571C12.6081 4.28571 14.4249 5.18877 15.7645 6.79623C17.104 8.40368 17.8566 10.5839 17.8566 12.8571C17.8566 15.1304 17.104 17.3106 15.7645 18.9181C14.4249 20.5255 12.6081 21.4286 10.7137 21.4286C8.8193 21.4286 7.00248 20.5255 5.66294 18.9181C4.32339 17.3106 3.57084 15.1304 3.57084 12.8571ZM10.7137 2.43132e-07C9.02746 -0.000257978 7.36497 0.477091 5.86145 1.39322C4.35793 2.30936 3.05584 3.63841 2.06107 5.27228C1.0663 6.90615 0.406937 8.7987 0.136617 10.796C-0.133703 12.7933 -0.00735043 14.839 0.505398 16.7667C1.01815 18.6944 1.90281 20.4496 3.08744 21.8896C4.27208 23.3297 5.72322 24.4138 7.32287 25.054C8.92251 25.6941 10.6255 25.8721 12.2933 25.5736C13.961 25.275 15.5466 24.5082 16.9208 23.3357L21.9512 29.3721C22.288 29.7625 22.7391 29.9785 23.2073 29.9736C23.6755 29.9687 24.1234 29.7433 24.4544 29.346C24.7855 28.9487 24.9733 28.4113 24.9774 27.8494C24.9815 27.2876 24.8015 26.7463 24.4762 26.3421L19.4476 20.3079C20.5874 18.3843 21.264 16.1215 21.4032 13.7672C21.5424 11.4129 21.1389 9.05801 20.2369 6.96064C19.3348 4.86327 17.9691 3.10433 16.2893 1.87655C14.6096 0.648772 12.6805 -0.00045868 10.7137 2.43132e-07Z" fill="#0066B3"/>
</g>
<defs>
<clipPath id="clip0_116_9">
<rect width="25" height="30" fill="white"/>
</clipPath>
</defs>
</svg>
