<svg width="136" height="34" viewBox="0 0 136 34" fill="none" xmlns="http://www.w3.org/2000/svg">
<g clip-path="url(#clip0_2_7016)">
<path d="M22.5607 8.64205C22.0065 4.88425 18.7459 2 14.8021 2C11.2873 2 8.31517 4.29309 7.31688 7.44844C14.8363 6.83469 19.8087 7.79108 22.5607 8.64205Z" fill="#0068B7"/>
<path d="M24.0372 20.8041C21.9723 20.8041 20.1503 21.8132 19.0344 23.3607C22.9972 25.1342 27.795 25.7555 30.1104 25.9588C29.6549 23.0407 27.108 20.8041 24.0372 20.8041Z" fill="#0068B7"/>
<path d="M24.3522 11.8539C23.7601 11.5941 23.149 11.3456 22.5303 11.1046C22.2608 11.0029 21.9913 10.8975 21.718 10.7996C16.2862 8.81902 11.0481 8.05842 7.07392 8.45002C6.76646 8.48014 6.4628 8.51779 6.17053 8.56298C3.07319 9.02988 0.890628 10.2687 0.214983 12.2379C-1.34507 16.794 5.753 23.5377 16.0661 27.2993C16.7076 27.5327 17.3452 27.7511 17.9791 27.9507C18.4802 30.8161 21.0006 33 24.0334 33C26.3981 33 28.4478 31.6746 29.4765 29.7355C33.6898 29.5773 36.7492 28.2632 37.5691 25.8647C38.9925 21.7078 33.2077 15.7284 24.3484 11.8576L24.3522 11.8539ZM36.4721 24.2945C35.8799 25.5635 34.1681 26.3918 31.7312 26.7571C31.2415 26.8324 30.7253 26.8851 30.1825 26.9227C26.8612 27.1487 22.5758 26.678 18.0551 25.4919C17.4325 25.33 16.8062 25.153 16.1762 24.961C16.1344 24.9497 16.0926 24.9347 16.0509 24.9234C6.45141 21.9902 -0.0772909 16.971 1.4524 13.6876C2.11286 12.2681 4.17396 11.4058 7.07772 11.1159C7.7154 14.7758 10.9304 17.5621 14.8021 17.5621C17.9488 17.5621 20.6589 15.7246 21.9115 13.0738C31.492 16.0108 38.0018 21.0225 36.4721 24.2983V24.2945Z" fill="#0068B7"/>
<path d="M103.748 8.94702H99.569V28.41H103.748V8.94702Z" fill="black"/>
<path d="M70.744 18.4545L72.1333 10.9615C72.8127 8.79265 69.8179 8.9282 69.8179 8.9282L52.5737 8.92444V11.3117H67.7112L66.2612 18.4545H50.3456V20.8417H60.3247V28.4025H64.4962V20.8417H74.5626V18.4545H70.744Z" fill="black"/>
<path d="M96.2477 9.51559L83.0005 9.50806V20.5518C83.0005 20.5518 83.0954 22.4307 84.9326 22.683L96.2477 22.6905V9.51559ZM92.1483 11.8727V20.4275H87.1V11.8727H92.1483Z" fill="black"/>
<path d="M135.002 28.7754L134.995 9.35376L130.588 9.36506L130.558 20.533L128.785 20.6008C128.785 20.6008 123.995 19.9005 123.759 15.5666L123.744 9.70017H119.375L119.364 15.623C119.201 17.1179 118.35 20.646 113.287 20.646L113.329 23.1688C113.329 23.1688 119.926 23.3608 121.387 19.3206C121.808 19.8816 124.192 22.909 127.578 22.909L130.679 22.9617L130.694 28.7904L134.999 28.7791L135.002 28.7754Z" fill="black"/>
</g>
<defs>
<clipPath id="clip0_2_7016">
<rect width="136" height="31" fill="white" transform="translate(0 2)"/>
</clipPath>
</defs>
</svg>
